<?xml version="1.0" encoding="utf-8"?>
<!-- Generator: Adobe Illustrator 19.0.0, SVG Export Plug-In . SVG Version: 6.00 Build 0)  -->
<svg version="1.1" id="圖層_1" xmlns="http://www.w3.org/2000/svg" xmlns:xlink="http://www.w3.org/1999/xlink" x="0px" y="0px"
	 width="500px" height="500px" viewBox="0 0 500 500" style="enable-background:new 0 0 500 500;" xml:space="preserve">
<style type="text/css">
	.st0{fill:url(#XMLID_2_);}
	.st1{fill:#FFFFFF;}
</style>
<linearGradient id="XMLID_2_" gradientUnits="userSpaceOnUse" x1="0" y1="250" x2="500" y2="250">
	<stop  offset="0" style="stop-color:#DC2424"/>
	<stop  offset="1" style="stop-color:#4A569D"/>
</linearGradient>
<rect id="XMLID_103_" class="st0" width="500" height="500"/>
<g id="XMLID_59_">
	<g id="XMLID_63_">
		<path id="XMLID_3_" class="st1" d="M104.1,271.3c0-0.8,0.2-1.2,0.7-1.4h1c3.2,0.2,7.2-0.9,11.9-3.4c5.2-2.7,7.8-5.5,7.8-8.5
			c0-1.7-1-3.1-2.9-4.1c-1-0.5-2.9-1.5-5.5-2.8c-2-1-2.9-2.1-2.9-3.3c0-1,1-2.3,3-3.9c1-0.8,2.9-2.2,5.5-4.3c2-1.6,3-3.4,3-5.4
			c0-0.5-0.2-0.9-0.7-1.4c-0.4-0.4-0.9-0.6-1.4-0.6h-7.9c-1.8,0-3.1,3.7-3.8,11.1c-0.2,1.6-0.4,5.9-0.6,13c-0.1,1.9-0.6,4.4-1.6,7.7
			l-1.4,0.7v-3.9c0-2.5,0.2-6.2,0.7-10.9l1.1-10.9c0.2-2.6,0.5-4.4,0.7-5.4c0.6-2.8,1.3-4.4,2.2-4.7c1.4-0.5,3.7-0.7,7.1-0.7
			c5.5,0,8.3,1.9,8.3,5.7c0,1.6-0.6,3.1-1.9,4.8c-0.7,0.8-2,2.2-3.9,4c-1.7,1.6-2.9,3-3.7,4.1c0,0.9,0.9,2,2.6,3.1
			c3,2,4.7,3.1,4.9,3.2c1.7,1.4,2.6,3,2.6,4.6c0,3.2-2.9,6.5-8.8,10.1c-5.4,3.2-9.9,4.9-13.3,4.9
			C104.9,272.5,104.1,272.1,104.1,271.3z"/>
	</g>
	<g id="XMLID_67_">
		<path id="XMLID_4_" class="st1" d="M130.7,253.8c3.6-3.9,6.3-6.7,8.3-8.3c3.9-3.3,7.2-4.9,10-4.9c0.5,0,1,0.2,1.5,0.5
			c0.5,0.3,0.8,0.7,0.8,1.2c0,1.9-1.4,4.1-4.3,6.4c-1.5,1.2-4.1,2.9-8,5.1c-2.9,1.6-4.3,2.7-4.3,3.1c0,1.1,0.9,2.3,2.7,3.7
			c0.5,0,1.1,0,2,0.1c0.9,0,1.6,0.1,2,0.1c4.4,0,8.2-0.9,11.3-2.8c0.5,0.1,0.7,0.7,0.7,1.7c0,1-2.1,2.1-6.3,3.3
			c-3.7,1.1-6.4,1.7-7.9,1.7C133.5,264.6,130.7,261,130.7,253.8z M145.7,245c-1.4,0-2.9,0.5-4.5,1.5c-1.8,1.1-2.7,2.3-2.7,3.6
			l0.1,0.3C143.3,248.9,145.7,247.1,145.7,245z"/>
	</g>
	<g id="XMLID_583_">
		<path id="XMLID_5_" class="st1" d="M154.8,259.9c0-1,0-2,0.1-3c0.2-2.3,2.2-6.5,6.1-12.5c4-6.3,7-9.4,8.8-9.4
			c1.2,0,1.9,1.1,1.9,3.4c0,1.1-0.1,2.7-0.4,4.9c-0.3,2.2-0.4,3.8-0.4,4.9c0,5.7,1.2,9.7,3.5,12.1c0.8,0,2-0.2,3.5-0.6
			c1.6-0.4,2.7-0.6,3.5-0.6c0,1.9-0.7,3.2-2.2,3.9c-0.9,0.5-2.5,0.7-4.7,0.7c-2.8,0-5-2.7-6.5-8h-0.3c-0.7,0.6-1.6,2-2.8,4.1
			c-1.5,2.5-2.5,4.1-3.1,4.9c-1.3,1.6-2.7,2.3-4,2.3c-1.6,0-2.5-0.8-2.8-2.5C154.8,264,154.8,262.5,154.8,259.9z M156.5,260.9
			c0,1.5,0.6,2.2,1.9,2.2c0.9,0,1.8-0.7,2.8-2.1c2.6-3.5,4.4-6.9,5.4-10c1-3.1,1.5-6.9,1.5-11.4c-2.5,0-5.1,2.9-7.8,8.8
			C157.8,253.8,156.5,258,156.5,260.9z"/>
	</g>
	<g id="XMLID_600_">
		<path id="XMLID_6_" class="st1" d="M182.5,258.8c0-2.4,0.5-6,1.5-10.9c1.1-5.1,2.1-8.5,3.1-10.2c0.3-0.1,0.7-0.2,1-0.2
			c1.2,0,1.8,0.4,1.8,1c0,2.3-0.8,5.5-2.3,9.8c-1.5,4.3-2.3,7.6-2.3,9.8c0.7,0.4,1.3,0.6,1.8,0.6l10.3-21.9h0.3l0.7,0.7v0.7
			c0,1.8-0.2,4.1-0.5,7l-0.8,6.9c0.5,2.3,1,3.9,1.3,4.7c0.7,2,1.6,3.3,2.7,3.9h3c1.6,0,2.4,0,2.7,0c1.2,0.2,1.8,0.6,1.8,1.4
			l-0.1,0.6c-1.4,0.9-3.1,1.4-5.2,1.4c-4.3,0-7.2-2.3-8.6-7c-0.6-1.9-1-2.9-1.2-3c-0.6,0-1.4,0.9-2.2,2.7c-1.3,2.7-2.2,4.4-2.6,4.9
			c-1.2,1.8-2.6,2.7-4.1,2.7c-0.5,0-0.9-0.1-1.4-0.2l-0.7-1.4c0,0.3,0,0.3,0-0.2c0-0.5-0.1-1-0.1-1.8V258.8z"/>
	</g>
	<g id="XMLID_602_">
		<path id="XMLID_7_" class="st1" d="M215.5,259.6c0-2.7,0.7-6.7,2-11.9c1.3-5.2,2-9.2,2-11.9c-0.7,0-1.8,0.1-3.1,0.2
			c-1.4,0.1-2.4,0.2-3.1,0.2v3.1c-1.3-0.1-2.2-0.3-2.7-0.7c-0.7-0.5-1-1.3-1-2.5c0-2.8,2.4-4.2,7.1-4.2c0.1,0,1,0,2.7,0
			c0.9,0,1.6,0,2.2,0c0.5-1.4,1.4-4.1,2.7-7.8c0.9-2.8,1.4-5.5,1.4-8.1h3.4c0,1.8-0.6,4.4-1.8,7.8c-1.2,3.4-1.8,6-1.8,7.8
			c0.2,0.3,0.5,0.6,1,1c0.5,0.4,0.9,0.7,1,0.9h7.7c0,1.4-0.9,2.3-2.7,3c-1.2,0.5-2.7,0.7-4.4,0.7c-0.3,0-0.7-0.1-1.3-0.3
			c-0.6-0.2-1-0.3-1.3-0.3c-0.5,0-1.2,1.6-2.2,4.7c-2.6,7.7-3.8,13-3.8,15.7c0,1.1,0.5,1.9,1.4,2.2c1.6-0.9,3.5-2.7,5.5-5.1
			c2.3-2.8,4-4.6,5.1-5.5l0.3-0.1c0.7,0,1,0.6,1,1.7c0,1.9-1.7,4.9-5,9.2c-3.4,4.3-5.9,6.4-7.6,6.4c-1.3,0-2.4-0.7-3.4-2
			C216,262.3,215.5,261,215.5,259.6z"/>
	</g>
	<g id="XMLID_604_">
		<path id="XMLID_8_" class="st1" d="M218.3,286.2c0.5,0,1.2,0.3,2.2,0.9c1,0.6,1.7,0.9,2.2,0.9c1.6,0,3.9-1,6.8-2.9
			c5.7-3.8,9.9-7.8,12.6-11.8c2.4-3.5,4.6-8.8,6.7-15.8c1-3.5,1.5-5.9,1.5-7.4c0-1.3-0.4-1.9-1.2-1.9c-0.1,0-0.2,0.1-0.2,0.2
			c0,1.5-1.3,3.9-3.8,7.2c-2,2.6-3.8,4.5-5.4,5.9c-0.6,0.1-1.6,0.1-3,0.1c-1.2,0-1.8-0.8-1.8-2.3v-1c0-0.9,0.1-1.3,0.1-1
			c0-10.5,1.9-15.7,5.7-15.7c0,1.6-0.4,4.1-1.2,7.3c-0.8,3.2-1.2,5.7-1.2,7.3c0,0.8,0.2,1.3,0.7,1.4c0.9-0.6,3.3-3.5,7-8.7
			c3.5-4.9,5.4-7.3,5.9-7.3c1.2,0,1.7,1.1,1.7,3.3c0,6.9-1.5,13.8-4.6,20.9c-3.2,7.4-7.3,13.2-12.4,17.2c-6.4,5.1-11.4,7.7-15.2,7.7
			c-1.3,0-2.2-0.4-2.7-1.3C218.5,288.6,218.3,287.6,218.3,286.2z"/>
	</g>
	<g id="XMLID_688_">
		<path id="XMLID_9_" class="st1" d="M280.2,266.1l4.4-0.2c1.5-0.1,4.6-2,9.1-5.9c4.6-3.8,6.8-6.4,6.8-7.8c0-1.9-1.4-3.5-4.1-4.7
			c-1.1-0.5-3.6-1.7-7.7-3.5c-2.8-1.6-4.1-3.5-4.1-5.8c0-3.8,1.9-6.8,5.7-9.1c3.2-1.9,6.8-2.9,10.9-2.9c1.4,0,2.6,0.3,3.8,0.9
			c1.4,0.8,2.2,1.7,2.2,2.9l-0.1,0.2l-1.3,1.3c-1.3-1.8-3.3-2.7-6-2.7c-2.3,0-4.6,0.6-7,1.9c-2.3,1.3-4.2,2.8-5.6,4.7v1.1
			c0,2.1,1.4,3.9,4.3,5.3c1.5,0.7,4.1,2,8,3.8c2.9,1.7,4.3,3.9,4.3,6.5c0,2.8-2.8,6.3-8.5,10.4c-5.5,4-9.7,6-12.7,6
			C281,268.5,280.2,267.7,280.2,266.1z"/>
	</g>
	<g id="XMLID_718_">
		<path id="XMLID_10_" class="st1" d="M307,259.9c0-1,0-2,0.1-3c0.2-2.3,2.2-6.5,6.1-12.5c4-6.3,7-9.4,8.8-9.4
			c1.2,0,1.9,1.1,1.9,3.4c0,1.1-0.1,2.7-0.4,4.9c-0.3,2.2-0.4,3.8-0.4,4.9c0,5.7,1.2,9.7,3.5,12.1c0.8,0,2-0.2,3.5-0.6
			c1.6-0.4,2.7-0.6,3.5-0.6c0,1.9-0.7,3.2-2.2,3.9c-0.9,0.5-2.5,0.7-4.7,0.7c-2.8,0-5-2.7-6.5-8H320c-0.7,0.6-1.6,2-2.8,4.1
			c-1.5,2.5-2.5,4.1-3.1,4.9c-1.3,1.6-2.7,2.3-4,2.3c-1.6,0-2.5-0.8-2.8-2.5C307.1,264,307,262.5,307,259.9z M308.8,260.9
			c0,1.5,0.6,2.2,1.9,2.2c0.9,0,1.8-0.7,2.8-2.1c2.6-3.5,4.4-6.9,5.4-10c1-3.1,1.5-6.9,1.5-11.4c-2.5,0-5.1,2.9-7.8,8.8
			C310,253.8,308.8,258,308.8,260.9z"/>
	</g>
	<g id="XMLID_723_">
		<path id="XMLID_11_" class="st1" d="M334.8,253.8c0-4.3,1.2-9.7,3.7-16.3c0.9-2.5,3.2-7.7,6.7-15.7h1.5c0,1.8-0.8,4.6-2.3,8.5
			l-4.1,10.7c-1.5,3.8-2.2,7.5-2.2,11.1c0,1.9,0.2,3.7,0.6,5.4c0.6,2.4,1.5,3.6,2.7,3.6h6.7l0.6,0.6c-1.7,2.3-3.7,3.4-6,3.4
			c-2.7,0-4.8-1.3-6.2-3.8C335.4,259.2,334.8,256.7,334.8,253.8z"/>
	</g>
	<g id="XMLID_734_">
		<path id="XMLID_12_" class="st1" d="M349.7,256.7c0-0.4,0-1,0.1-1.8c0-0.8,0.1-1.3,0.1-1.8c0.6-0.3,1.5-2,2.7-5.1
			c1.1-2.8,2.2-4.3,3.3-4.3c0.8,0,1.5,0.2,2,0.7h12.3v1.9c-2.1,0.9-4.9,1.6-8.3,2.1c0,0.2-0.1,0.5-0.1,1c0,0.7,0.2,1.6,0.7,2.9
			c0.5,1.3,0.7,2.3,0.7,2.9c0,2.3-0.8,4.8-2.4,7.6c-1.8,3.1-3.8,4.7-5.9,4.7c-2.3,0-3.8-1.4-4.6-4.1
			C349.9,262.2,349.7,259.9,349.7,256.7z M356.8,249.9c-0.4,0-1,0.2-1.6,0.7c-0.7,0.5-1.1,0.9-1.3,1.3v10.6c0.3,0.5,0.7,0.7,1.3,0.7
			c2.7,0,4.1-2.4,4.1-7.2C359.2,251.9,358.4,249.9,356.8,249.9z"/>
	</g>
	<g id="XMLID_737_">
		<path id="XMLID_13_" class="st1" d="M375.6,243.3c0.4-0.1,0.9-0.1,1.4-0.1c1.4,0,2.2,0.9,2.5,2.7c0,1.4,0.1,2.7,0.2,4.1h0.6
			c0.6,0,1.3-0.5,2.3-1.4c0.9-0.9,1.6-1.4,2-1.4c1.2,0,2,1,2.4,3c0.2,0.8,0.4,2.9,0.6,6.1c0.1,1.9,0.3,3.2,0.4,3.7
			c0.4,1.3,1.1,2.2,2.3,2.7l2.5,1l0.4,0.4c1.6,0,2.5,0.3,2.8,0.9c-0.7,1.2-1.8,1.7-3.4,1.5l-5.1-0.6c-1.6-0.2-2.8-1.7-3.5-4.6
			c-0.3-1.1-0.6-3.2-0.9-6.2c-0.3-0.5-0.7-0.8-1-0.7c-0.9,0.5-2.3,2.5-4,5.9c-0.2,0.5-0.9,1.7-1.9,3.8l-1.1,2.3
			c-0.5,0.3-1.2,1.2-1.9,2.7c-0.5,1-1.5,1.5-3,1.5c0-1.4,0.6-3.7,1.7-6.8c1.4-3.9,2.2-6.4,2.3-7.5
			C374.4,253.7,374.9,249.3,375.6,243.3z"/>
	</g>
</g>
<g id="XMLID_68_">
	<g id="XMLID_69_">
		<path id="XMLID_14_" class="st1" d="M360.6,292.5c-0.7,3-1.1,6.1-1.6,9.3c-1.3,8.5-2.4,16.4-6.9,22.6c-4.6,6.2-12.2,10-19.5,13.5
			c-4.6,2.3-9.3,4.5-13.3,7.5c-3.9,2.9-7.6,6.6-11,10.3c-5.7,6-11.7,12-19.2,14.5c-7.1,2.3-15,1-23.3-0.5
			c-5.1-0.9-10.4-1.8-15.6-1.8s-10.5,0.9-15.6,1.8c-8.4,1.4-16.2,2.8-23.3,0.5c-7.5-2.4-13.4-8.6-19.2-14.5
			c-3.6-3.7-7.1-7.4-11-10.3c-4.1-2.9-8.8-5.2-13.3-7.5c-7.4-3.6-15-7.4-19.5-13.6s-5.7-14-6.9-22.5c-0.5-3.2-0.9-6.3-1.6-9.3h-2.1
			c0.7,3,1.2,6.3,1.6,9.5c1.3,8.4,2.4,16.9,7.2,23.5c4.8,6.7,12.7,10.5,20.3,14.3c4.4,2.2,9.1,4.4,12.9,7.2c3.8,2.8,7.4,6.5,10.8,10
			c6,6.1,12.1,12.4,20,15.1c3,1,6.1,1.4,9.3,1.4c4.9,0,10-0.9,15.1-1.8c5.1-0.9,10.3-1.8,15.2-1.8s10.1,0.9,15.2,1.8
			c8.2,1.4,16.7,2.9,24.4,0.4c8-2.5,14.1-8.9,20-15.1c3.4-3.6,7-7.2,10.8-10c3.8-2.8,8.5-5.1,12.9-7.2c7.6-3.7,15.5-7.6,20.3-14.3
			c4.8-6.6,6.1-15,7.2-23.4c0.5-3.2,1-6.5,1.7-9.5H360.6z"/>
	</g>
	<g id="XMLID_595_">
		<path id="XMLID_15_" class="st1" d="M150.7,198.8c-1.6-7.9-3.4-16.1,0.1-21c3.6-4.9,11.9-5.9,20-6.7c7-0.8,14.1-1.4,18.6-4.8
			c4.6-3.3,7.4-9.8,10.1-16.1c3.3-7.5,6.7-15.2,12.6-17.1c5.6-1.8,12.4,2.2,19.5,6.3c6.1,3.6,12.4,7.2,18.4,7.2
			c6,0,12.3-3.7,18.4-7.2c7.2-4.2,14-8.1,19.5-6.3c6,1.9,9.4,9.6,12.6,17.1c2.8,6.3,5.7,12.8,10.1,16.1c4.6,3.3,11.8,4.1,18.6,4.8
			c8.1,0.8,16.4,1.6,20,6.6c3.6,4.8,1.8,13.3,0.1,21.2c-0.7,3.1-1.4,5.6-1.8,9.6h2.4c0.4-3,1-6.2,1.7-9.2c1.8-8.2,3.6-17-0.5-22.6
			c-4.2-5.7-12.9-6.7-21.4-7.5c-6.7-0.6-13.6-1.4-17.8-4.5c-4.1-2.9-6.9-9.3-9.5-15.4c-3.4-7.9-7-16-13.8-18.3
			c-6.5-2-14,2.3-21.2,6.5c-6,3.4-12.1,7-17.4,7c-5.3,0-11.5-3.6-17.4-7c-7.2-4.2-14.7-8.5-21.2-6.5c-6.7,2.2-10.4,10.3-13.8,18.3
			c-2.7,6.1-5.5,12.3-9.5,15.3c-4.2,3-11,3.7-17.8,4.4c-8.5,0.9-17.3,1.8-21.4,7.5c-4.1,5.6-2.3,14.4-0.5,22.7
			c0.6,3,1.3,6.2,1.7,9.2h2.1C152.1,204.5,151.4,202,150.7,198.8z"/>
	</g>
	<g id="XMLID_596_">
		<path id="XMLID_16_" class="st1" d="M349.6,301.6c1.6,7.9,3.4,15.9-0.1,20.8s-11.9,5.8-20,6.5c-7,0.8-14.1,1.4-18.6,4.8
			c-4.6,3.3-7.4,9.8-10.1,16.1c-3.3,7.5-6.7,15.2-12.6,17.1c-5.6,1.8-12.4-2.2-19.5-6.3c-6.1-3.6-12.4-7.2-18.4-7.2
			c-6,0-12.3,3.7-18.4,7.2c-7.2,4.2-14,8.1-19.5,6.3c-6-1.9-9.4-9.6-12.6-17.1c-2.8-6.3-5.7-12.8-10.1-16.1
			c-4.6-3.3-11.8-4.1-18.6-4.8c-8.1-0.8-16.4-1.6-20-6.6c-3.6-4.8-1.8-12.8-0.1-20.7c0.7-3.1,1.4-6.1,1.8-9.1h-2.1
			c-0.4,2-1,5.7-1.7,8.8c-1.8,8.2-3.6,16.8,0.5,22.3c4.2,5.7,12.9,6.5,21.4,7.4c6.7,0.6,13.6,1.4,17.8,4.4c4.1,2.9,6.9,9.2,9.5,15.3
			c3.4,7.9,7,16,13.8,18.3c6.5,2.2,14-2.3,21.2-6.5c6-3.4,12.1-7,17.4-7c5.3,0,11.5,3.6,17.4,7c6,3.4,12.1,7,17.6,7
			c1.3,0,2.4-0.1,3.6-0.5c6.7-2.2,10.4-10.3,13.8-18.3c2.7-6.1,5.5-12.3,9.5-15.3c4.2-3,11-3.7,17.8-4.4c8.5-0.9,17.3-1.8,21.4-7.5
			c4.1-5.6,2.3-14,0.5-22.2c-0.6-3-1.3-6.8-1.7-8.8h-2.4C348.2,295.5,348.9,298.5,349.6,301.6z"/>
	</g>
	<g id="XMLID_598_">
		<path id="XMLID_17_" class="st1" d="M139.7,208.5c0.7-4,1.1-6.6,1.6-9.7c1.3-8.5,2.4-16.6,6.9-22.8c4.6-6.2,12.2-10.1,19.5-13.6
			c4.6-2.3,9.3-4.6,13.3-7.5c3.9-2.9,7.6-6.6,11-10.3c5.7-6,11.7-12.1,19.2-14.5c2.8-0.9,5.7-1.3,8.6-1.3c4.7,0,9.6,0.9,14.7,1.8
			c5.1,0.9,10.4,1.8,15.6,1.8s10.5-0.9,15.6-1.8c8.4-1.4,16.2-2.8,23.3-0.5c7.5,2.4,13.4,8.6,19.2,14.5c3.6,3.7,7.1,7.4,11,10.3
			c4.1,2.9,8.8,5.2,13.3,7.5c7.4,3.6,15,7.4,19.5,13.6c4.6,6.2,5.7,14.4,6.9,22.9c0.5,3.2,0.9,5.7,1.6,9.7h1.9
			c-0.7-4-1.2-6.8-1.6-10c-1.3-8.4-2.4-17.1-7.2-23.7c-4.8-6.7-12.7-10.6-20.3-14.4c-4.4-2.2-9.1-4.5-12.9-7.3
			c-3.8-2.8-7.4-6.5-10.8-10c-6-6.1-12.1-12.4-20-15.1c-7.6-2.5-16.1-1-24.4,0.4c-5.1,0.9-10.3,1.8-15.2,1.8s-10.1-0.9-15.2-1.8
			c-8.2-1.4-16.7-2.9-24.4-0.4c-8,2.5-14.1,8.9-20,15.1c-3.4,3.6-7,7.2-10.8,10c-3.8,2.8-8.5,5.1-12.9,7.2
			c-7.6,3.7-15.5,7.6-20.3,14.3c-4.8,6.6-6.1,15.5-7.2,23.8c-0.5,3.2-1,6-1.7,10H139.7z"/>
	</g>
</g>
</svg>
